<?xml version="1.0" encoding="UTF-8" standalone="no"?>
<svg width="119px" height="32px" viewBox="0 0 119 32" version="1.1" xmlns="http://www.w3.org/2000/svg" xmlns:xlink="http://www.w3.org/1999/xlink">
    <!-- Generator: Sketch 3.8.3 (29802) - http://www.bohemiancoding.com/sketch -->
    <title>Group</title>
    <desc>Created with Sketch.</desc>
    <defs></defs>
    <g id="Final" stroke="none" stroke-width="1" fill="none" fill-rule="evenodd">
        <g id="Top_Desktop" transform="translate(-40.000000, -30.000000)" fill="#4A4A4A">
            <g id="Group" transform="translate(40.000000, 30.000000)">
                <path d="M72.5800747,18.2293487 C72.5882425,18.217428 72.5957481,18.2055073 72.6034745,18.1935867 C74.6748007,17.2571521 76.0110192,15.1986295 76.0110192,12.9394424 C76.0110192,9.75839034 73.4092233,7.17028112 70.211394,7.17028112 L64.6729197,7.17028112 C64.0859373,7.17028112 63.6027088,7.62437022 63.5574544,8.21996206 L63.5528186,25.1024961 C63.5528186,25.7201633 64.0552526,26.2228181 64.6729197,26.2228181 C65.2905869,26.2228181 65.7930209,25.7201633 65.7930209,25.1024961 L65.7930209,18.7203035 L70.2566484,18.7203035 L74.4970945,25.6848428 C74.7019534,26.021712 75.0600149,26.2228181 75.4545007,26.2228181 C75.6593595,26.2228181 75.8606863,26.1660845 76.0359643,26.05924 C76.2915964,25.9038298 76.4712894,25.6579109 76.5423719,25.3669583 C76.6127921,25.0764473 76.5662132,24.7757815 76.4105823,24.5203702 L72.5800747,18.2293487 L72.5800747,18.2293487 Z M73.7705961,12.9394424 C73.7705961,14.8856016 72.1741097,16.4690635 70.211394,16.4690635 C70.1599586,16.4690635 70.1054325,16.4732578 70.0729818,16.4803219 L65.7930209,16.4803219 L65.7930209,9.41026272 L70.211394,9.41026272 C72.1741097,9.41026272 73.7705961,10.9935039 73.7705961,12.9394424 L73.7705961,12.9394424 Z" id="Fill-1"></path>
                <path d="M88.8954941,7.91730957 C88.7135935,7.45814314 88.245597,7.17138488 87.7813532,7.21531475 C87.2928266,7.16785283 86.8171037,7.45593561 86.6345409,7.91730957 L79.9863408,24.6896878 C79.8761851,24.9678367 79.8808209,25.272476 79.9993653,25.5468721 C80.1185719,25.8217097 80.3368968,26.0336327 80.6150456,26.1435677 C80.747056,26.1961069 80.8859097,26.2230388 81.0274124,26.2230388 C81.4896694,26.2230388 81.8982834,25.9451107 82.0687047,25.5155252 L83.905812,20.8812555 L91.6244437,20.8812555 L93.4611095,25.5155252 C93.6315308,25.9451107 94.0403656,26.2230388 94.5026225,26.2230388 C94.644346,26.2230388 94.7831997,26.1961069 94.9147686,26.1435677 C95.1929174,26.0336327 95.411463,25.8217097 95.5304489,25.5468721 C95.6494348,25.2722552 95.6538499,24.967616 95.5434734,24.6896878 L88.8954941,7.91730957 L88.8954941,7.91730957 Z M90.7363541,18.6414947 L84.7934601,18.6414947 L87.7650175,11.1442782 L90.7363541,18.6414947 L90.7363541,18.6414947 Z" id="Fill-2"></path>
                <path d="M116.939084,23.9823949 L110.63283,23.9823949 L110.63283,8.31047082 C110.63283,7.69302443 110.130396,7.1905904 109.51295,7.1905904 C108.895503,7.1905904 108.393069,7.69302443 108.393069,8.31047082 L108.393069,25.1024961 C108.393069,25.7201633 108.895503,26.2228181 109.51295,26.2228181 L116.939084,26.2228181 C117.556751,26.2228181 118.059185,25.7201633 118.059185,25.1024961 C118.059185,24.484829 117.556751,23.9823949 116.939084,23.9823949" id="Fill-3"></path>
                <path d="M100.940003,7.26630871 C100.322336,7.26630871 99.8199022,7.76874274 99.8199022,8.38640989 L99.8199022,25.1024961 C99.8199022,25.7201633 100.322336,26.2228181 100.940003,26.2228181 C101.557671,26.2228181 102.060105,25.7201633 102.060105,25.1024961 L102.060105,8.38640989 C102.060105,7.76874274 101.557671,7.26630871 100.940003,7.26630871" id="Fill-4"></path>
                <path d="M58.601989,7.21332797 L44.1269882,7.17028112 C43.4857004,7.17028112 42.9627364,7.69192067 42.9607496,8.33298764 C42.9598666,8.6442495 43.0803978,8.93763035 43.3000471,9.15882495 C43.5196964,9.37957804 43.8121943,9.5016545 44.1234561,9.50253751 L50.1347835,9.52063926 L50.1347835,25.0565795 C50.1347835,25.6996332 50.6577476,26.2230388 51.3008013,26.2230388 C51.9438551,26.2230388 52.4668191,25.6996332 52.4668191,25.0565795 L52.4668191,9.52748261 L58.5955872,9.54580512 C59.2384202,9.54580512 59.7629295,9.02394481 59.7646955,8.38309859 C59.7655786,8.07205749 59.6450474,7.77889738 59.4251773,7.55770279 C59.205528,7.33672895 58.9130301,7.21421098 58.601989,7.21332797" id="Fill-5"></path>
                <path d="M26.7025053,0.0472411613 L4.69607123,0.0472411613 C2.83092837,0.0472411613 0.0556205237,1.28301696 0.0556205237,4.68747111 L0.0556205237,14.0509342 C0.0556205237,14.6897936 0.575494051,15.2094464 1.21457425,15.2094464 C1.85343369,15.2094464 2.37308646,14.6897936 2.37308646,14.0509342 L2.37308646,4.68747111 C2.37308646,2.50709284 4.30953257,2.36978442 4.69607123,2.36448635 L26.7025053,2.36448635 C28.8828835,2.36448635 29.020192,4.30093245 29.02549,4.68747111 L29.02549,14.073451 C29.02549,14.7123104 29.5451428,15.232184 30.184223,15.232184 C30.8230824,15.232184 31.342956,14.7123104 31.342956,14.073451 L31.342956,4.68747111 C31.342956,2.82232826 30.1069594,0.0472411613 26.7025053,0.0472411613" id="Fill-6"></path>
                <path d="M30.184223,17.8229422 C29.5451428,17.8229422 29.02549,18.3428158 29.02549,18.9816752 L29.02549,26.6943467 C29.02549,28.8749457 27.0890439,29.0122541 26.7025053,29.0177729 L4.69607123,29.0177729 C2.51701748,29.0177729 2.37860529,27.0808853 2.37308646,26.6943467 L2.37308646,18.9565093 C2.37308646,18.3176499 1.85343369,17.7979971 1.21457425,17.7979971 C0.575494051,17.7979971 0.0556205237,18.3176499 0.0556205237,18.9565093 L0.0556205237,26.6943467 C0.0556205237,28.5597103 1.29161707,31.3350181 4.69607123,31.3350181 L26.7025053,31.3350181 C28.5676481,31.3350181 31.342956,30.0990216 31.342956,26.6943467 L31.342956,18.9816752 C31.342956,18.3428158 30.8230824,17.8229422 30.184223,17.8229422" id="Fill-7"></path>
                <path d="M15.6992882,17.7125657 C15.060208,17.7125657 14.540776,18.2322185 14.540776,18.8710779 L14.540776,24.985497 C14.540776,25.6243564 15.060208,26.1440092 15.6992882,26.1440092 C16.3381477,26.1440092 16.8580212,25.6243564 16.8580212,24.985497 L16.8580212,18.8710779 C16.8580212,18.2322185 16.3381477,17.7125657 15.6992882,17.7125657" id="Fill-8"></path>
                <path d="M16.8580212,9.54161081 L22.9064351,9.54161081 C23.5455153,9.54161081 24.0653888,9.02173728 24.0653888,8.38287784 C24.0653888,7.7440184 23.5455153,7.22414487 22.9064351,7.22414487 L8.49214136,7.22414487 C7.85306117,7.22414487 7.33318764,7.7440184 7.33318764,8.38287784 C7.33318764,9.02173728 7.85306117,9.54161081 8.49214136,9.54161081 L14.540776,9.54161081 L14.540776,13.9257672 C14.540776,14.5646266 15.060208,15.0845001 15.6992882,15.0845001 C16.3381477,15.0845001 16.8580212,14.5646266 16.8580212,13.9257672 L16.8580212,9.54161081" id="Fill-9"></path>
            </g>
        </g>
    </g>
</svg>